<svg width="300" height="300" viewBox="0 0 300 300" fill="none" xmlns="http://www.w3.org/2000/svg">
<rect width="300" height="300" fill="#010101"/>
<path d="M130.341 209.823C127.452 209.823 124.74 209.592 122.208 209.128C119.71 208.7 117.641 208.147 116 207.469L121.137 190.452C123.813 191.272 126.221 191.718 128.362 191.79C130.538 191.861 132.411 191.361 133.98 190.291C135.586 189.221 136.888 187.402 137.887 184.833L139.225 181.355L109.739 96.8042H133.713L150.73 157.167H151.586L168.764 96.8042H192.898L160.951 187.883C159.417 192.307 157.33 196.16 154.69 199.442C152.086 202.76 148.786 205.311 144.79 207.094C140.794 208.914 135.978 209.823 130.341 209.823Z" fill="white"/>
<path d="M107.145 96.4792L132.303 96.4789L107.17 177.596L88.4155 177.595L107.145 96.4792Z" fill="white"/>
<path d="M192.997 96.4842L174.153 96.4853L199.04 177.735L217.794 177.734L192.997 96.4842Z" fill="white"/>
</svg>

