<svg width="147" height="182" viewBox="0 0 147 182" fill="none" xmlns="http://www.w3.org/2000/svg">
<path d="M53.3415 176.823C50.4518 176.823 47.7405 176.592 45.2075 176.128C42.7103 175.7 40.6411 175.147 39 174.469L44.1373 157.452C46.8129 158.272 49.221 158.718 51.3615 158.79C53.5377 158.861 55.4107 158.361 56.9804 157.291C58.5858 156.221 59.8879 154.402 60.8868 151.833L62.2246 148.355L32.739 63.8042H56.7128L73.7299 124.167H74.5861L91.7638 63.8042H115.898L83.9509 154.883C82.4169 159.307 80.3298 163.16 77.6899 166.442C75.0856 169.76 71.7856 172.311 67.79 174.094C63.7944 175.914 58.9782 176.823 53.3415 176.823Z" fill="white"/>
<path d="M30.1448 63.4792L55.3033 63.4789L30.1699 144.596L11.4155 144.595L30.1448 63.4792Z" fill="white"/>
<path d="M115.997 63.4842L97.153 63.4853L122.04 144.735L140.794 144.734L115.997 63.4842Z" fill="white"/>
</svg>
